PathFileType	4	(X/Y/Z)	C:/Users/opensim2020/Desktop/walking_exp_matlab/subject06_walking22_straight_04.trc																																																																																																																																		
DataRate	CameraRate	NumFrames	NumMarkers	Units	OrigDataRate	OrigDataStartFrame	OrigNumFrames																																																																																																																														
100	100	7	44	mm	100	2200	102																																																																																																																														
Frame#	Time	LFHD			RFHD			LBHD			RBHD			C7			T10			CLAV			STRN			RBAK			LSHO			LUPA			LELB			LFRM			LWRA			LWRB			LFIN			RSHO			RUPA			RELB			RFRM			RWRA			RWRB			RFIN			LASI			RASI			LPSI			RPSI			LTHI			LKNE			LTIB			LANK			LHEE			LTOE			RTHI			RKNE			RTIB			RANK			RHEE			RTOE			*39			*40			*41			*42			*43		
		X1	Y1	Z1	X2	Y2	Z2	X3	Y3	Z3	X4	Y4	Z4	X5	Y5	Z5	X6	Y6	Z6	X7	Y7	Z7	X8	Y8	Z8	X9	Y9	Z9	X10	Y10	Z10	X11	Y11	Z11	X12	Y12	Z12	X13	Y13	Z13	X14	Y14	Z14	X15	Y15	Z15	X16	Y16	Z16	X17	Y17	Z17	X18	Y18	Z18	X19	Y19	Z19	X20	Y20	Z20	X21	Y21	Z21	X22	Y22	Z22	X23	Y23	Z23	X24	Y24	Z24	X25	Y25	Z25	X26	Y26	Z26	X27	Y27	Z27	X28	Y28	Z28	X29	Y29	Z29	X30	Y30	Z30	X31	Y31	Z31	X32	Y32	Z32	X33	Y33	Z33	X34	Y34	Z34	X35	Y35	Z35	X36	Y36	Z36	X37	Y37	Z37	X38	Y38	Z38	X39	Y39	Z39	X40	Y40	Z40	X41	Y41	Z41	X42	Y42	Z42	X43	Y43	Z43	X44	Y44	Z44
																																																																																																																																					
13	0.12	-556.55548	1617.23132	884.6109	-542.44678	1616.17493	1016.41724	-693.24298	1576.77051	903.88733	-677.15216	1580.28772	1032.28857	-698.17096	1417.66162	963.09021	-738.92542	1088.53149	974.02228	-589.0025	1337.72522	964.22931	-551.7475	1163.41272	968.28912	-776.31421	1253.36536	1049.01111	-646.52728	1365.32422	801.72968	-703.67206	1172.90601	735.22168	-746.67023	1068.47449	729.86438	-780.61969	923.08984	706.56677	-765.75464	792.3111	741.69647	-827.33276	813.47565	710.14117	-823.29156	722.16846	706.46716	-634.70758	1376.47717	1123.45056	-661.76678	1191.7854	1234.00537	-636.51111	1078.84167	1261.28101	-558.67841	993.90491	1272.46033	-434.2774	927.505	1218.0293	-466.38412	894.77094	1267.15137	-389.88351	862.61261	1255.11243	-544.97095	934.05048	886.96381	-580.29279	934.24872	1103.81079	-704.76459	952.8996	886.17877	-724.92896	958.41888	1051.34033	-526.85382	628.56714	812.47382	-461.00583	483.3248	844.90668	-419.47836	228.60559	849.10059	-369.19403	63.16217	891.97333	-402.68774	38.72042	938.25635	-225.50211	77.10266	897.26672	-696.07886	608.7511	1151.96777	-721.47833	482.43747	1137.41235	-910.85315	285.81683	1121.83777	-1034.98706	149.18329	1073.67285	-1075.80042	153.62947	1025.39856	-939.64423	31.90604	1084.55139	-645.26752	1669.47754	951.1557	NaN	NaN	NaN	NaN	NaN	NaN	NaN	NaN	NaN	NaN	NaN	NaN
14	0.13	-540.89783	1618.27026	883.6626	-527.04901	1616.94592	1015.49377	-677.75409	1577.90222	902.60535	-661.58289	1581.11731	1030.81287	-682.71863	1418.15039	961.39246	-721.84283	1089.02356	972.55768	-572.99573	1338.79468	963.01556	-534.74164	1164.68079	967.48822	-760.38171	1253.62036	1047.07629	-629.85803	1366.25549	800.3421	-686.76428	1174.01111	733.82214	-730.22162	1069.65479	729.04071	-764.27014	924.11481	706.27924	-749.229	793.3667	741.77557	-810.7218	814.43298	710.47198	-807.10547	723.10809	707.14154	-619.98761	1377.70654	1121.81274	-647.4729	1193.2384	1232.51221	-623.15289	1079.84229	1259.38135	-546.39923	993.83282	1271.01245	-422.52197	925.7337	1217.10181	-455.35764	893.27765	1266.07764	-379.29288	860.00323	1254.14209	-527.16534	935.54541	887.04828	-563.2453	935.25659	1102.86694	-686.86194	954.63812	885.17908	-707.68884	958.79352	1050.2323	-508.4895	630.11798	813.297	-445.89407	483.20761	843.60913	-409.69635	227.98524	850.79065	-364.51169	63.60386	891.98608	-398.42749	41.68532	939.30243	-219.38695	66.65124	895.62183	-676.19867	607.54089	1152.59473	-698.96783	480.53528	1139.68469	-894.47583	291.07489	1121.11389	-1023.16803	160.15945	1071.43909	-1061.22729	167.92342	1022.06647	-941.66821	33.03132	1084.53198	-629.71967	1670.52686	950.12933	NaN	NaN	NaN	NaN	NaN	NaN	NaN	NaN	NaN	NaN	NaN	NaN
15	0.14	-525.3631	1619.63245	882.69934	-511.82556	1618.16431	1014.49164	-662.2171	1579.28284	901.20551	-646.39197	1582.30139	1029.45203	-667.07135	1418.90649	959.41797	-704.91766	1089.54077	971.47205	-557.03644	1340.1438	961.89063	-517.9165	1166.16321	966.78766	-744.39459	1253.8905	1044.698	-613.172	1367.37256	798.86145	-669.96869	1175.23755	732.45709	-713.30078	1070.79822	727.97845	-747.36578	925.13336	705.4101	-732.63672	794.66223	742.61365	-793.55957	815.30121	710.24738	-789.72345	723.86932	707.80176	-605.40302	1379.1084	1120.24097	-633.54272	1194.65076	1230.95544	-610.13049	1080.802	1257.53699	-534.58936	993.4798	1269.56714	-411.53067	923.43939	1216.36487	-445.1554	891.31885	1264.98181	-369.44543	857.13373	1253.57422	-509.51398	937.16003	887.10602	-546.43262	936.02991	1101.67444	-669.22607	956.80359	884.21686	-690.57709	959.03455	1049.31506	-491.08994	631.9729	813.12817	-431.52921	484.02359	841.83984	-398.03906	228.88031	850.01648	-358.71881	63.26541	891.2298	-394.31653	43.71307	938.33142	-213.84581	61.41789	895.07452	-655.74884	605.82971	1153.54675	-675.74835	478.34512	1142.38867	-876.04266	296.28732	1120.48425	-1009.78253	172.14374	1069.35229	-1044.60876	182.61179	1018.81287	-941.17871	35.98347	1084.83081	-614.29401	1671.73267	949.01678	NaN	NaN	NaN	NaN	NaN	NaN	NaN	NaN	NaN	NaN	NaN	NaN
16	0.15	-509.93747	1620.99951	881.75586	-496.76846	1619.39136	1013.59369	-646.58405	1580.44519	899.81116	-631.51923	1583.50879	1028.17419	-651.18909	1419.80066	957.57593	-688.29279	1090.14355	970.49664	-541.05713	1341.41675	960.83441	-501.33423	1167.59412	966.04016	-728.38788	1254.2074	1042.18103	-596.17963	1368.46948	797.53381	-652.23114	1176.32227	730.77966	-695.87347	1071.849	726.74524	-729.21515	925.84924	704.7395	-713.79346	795.57147	742.22986	-775.2738	815.93805	709.99921	-771.18201	724.38409	708.40491	-590.86536	1380.67139	1118.94556	-619.93292	1196.01843	1229.34351	-597.40503	1081.74841	1255.69446	-523.39862	993.03033	1268.16479	-401.18457	920.82214	1215.76843	-435.66138	889.25226	1264.28333	-360.5527	853.62817	1253.11121	-491.77792	938.88196	886.62048	-529.92383	936.60907	1100.43005	-652.53418	959.55341	883.73688	-673.99774	959.13525	1048.98535	-474.52258	634.59491	811.7085	-416.95694	485.79346	840.13068	-387.53671	230.52548	848.31262	-354.21671	62.97038	890.46326	-391.85956	45.66542	937.35199	-210.18431	55.34734	895.18219	-634.909	603.91754	1154.58398	-652.23944	476.19498	1145.14063	-855.99646	301.81042	1120.21765	-994.30219	184.33348	1066.96094	-1026.09644	197.51129	1016.00958	-938.03229	40.38119	1084.64209	-599.04211	1673.07397	947.82062	NaN	NaN	NaN	NaN	NaN	NaN	NaN	NaN	NaN	NaN	NaN	NaN
17	0.16	-494.35715	1622.20117	880.81763	-481.74451	1620.54846	1012.74432	-631.13177	1581.56152	898.29327	-616.67938	1584.57104	1026.91113	-635.1571	1420.87415	955.89117	-672.06567	1090.82275	969.91589	-525.11298	1342.62903	959.99335	-485.17453	1168.8844	965.4762	-712.47205	1254.54871	1039.90173	-578.88245	1369.5509	796.40363	-634.61481	1177.45557	729.34387	-677.88019	1072.75122	725.37872	-710.5163	926.46344	703.84882	-696.60199	796.33209	742.74066	-756.06042	816.17749	709.2774	-751.43268	724.54596	708.91547	-576.1012	1382.18408	1117.84021	-606.68506	1197.38867	1227.7063	-584.96832	1082.66321	1253.73401	-512.64337	992.44739	1266.71643	-391.46307	917.83478	1215.29773	-427.05035	886.76215	1263.42969	-352.54053	849.76685	1252.86511	-474.57092	940.54669	885.79218	-513.79297	936.89813	1099.17297	-636.34882	961.82703	883.77228	-657.82086	958.992	1049.12952	-458.98419	637.54437	809.72357	-401.87259	488.22998	839.15021	-379.23901	231.40573	846.33551	-352.2312	62.79077	889.466	-390.29608	46.72709	936.04596	-207.58907	48.55167	896.48297	-613.84814	602.15063	1155.44189	-628.08722	474.18936	1147.33533	-833.98285	307.25644	1119.92773	-975.73737	196.16219	1064.94971	-1004.20117	211.88289	1013.10132	-934.57556	44.70911	1084.3479	-583.71362	1674.15881	946.55676	NaN	NaN	NaN	NaN	NaN	NaN	NaN	NaN	NaN	NaN	NaN	NaN
18	0.17	-478.94656	1623.30835	879.84656	-466.81979	1621.75037	1011.83765	-615.72131	1582.3147	896.94293	-601.55518	1585.31226	1025.47717	-619.24133	1421.91321	954.47546	-656.26404	1091.72827	969.29272	-509.29257	1343.68225	959.34808	-469.15372	1169.88892	965.07916	-696.73999	1255.14441	1037.95166	-561.36169	1370.57178	795.44995	-616.3255	1178.24438	727.97791	-659.49908	1073.5199	723.96893	-690.98199	926.78131	703.09863	-675.6593	797.26215	742.05231	-735.80292	816.14056	708.43378	-730.60736	724.37854	709.24585	-561.18353	1383.57056	1116.86108	-593.67749	1198.71021	1226.0376	-572.93713	1083.55542	1251.6825	-502.40564	991.75708	1265.26233	-382.47253	914.45483	1214.9718	-419.24741	884.0611	1262.6333	-345.40112	845.43134	1252.72083	-458.24838	942.17047	884.75781	-498.13791	936.97314	1098.1438	-621.15125	963.66895	884.33569	-642.20685	958.83527	1049.63208	-444.02936	640.24066	807.7312	-387.54248	490.17529	838.42175	-371.93396	232.16794	845.05969	-349.31534	62.48048	888.90332	-388.41406	47.85634	934.83984	-205.14507	43.5601	897.38458	-592.60284	600.61218	1155.9812	-603.16107	472.44611	1148.92822	-809.92804	311.84451	1119.94629	-954.38495	206.39575	1063.25854	-979.21045	224.43411	1010.33545	-929.19232	50.00954	1083.22937	-568.73413	1675.09399	945.3291	NaN	NaN	NaN	NaN	NaN	NaN	NaN	NaN	NaN	NaN	NaN	NaN
19	0.18	-463.77783	1624.44165	878.89032	-451.94644	1623.17041	1010.92731	-600.34155	1582.7937	895.56158	-586.24982	1585.99902	1024.00854	-603.42828	1422.83289	953.16522	-640.71375	1092.86572	968.66333	-493.42981	1344.65344	958.88354	-454.2583	1170.5542	965.01141	-681.29724	1256.08228	1036.34338	-543.93481	1371.51355	794.60565	-597.57007	1178.75513	726.61584	-640.86743	1073.99854	722.5274	-671.35266	926.9201	701.5094	-654.35419	797.89221	741.76843	-714.79407	815.73816	707.25952	-708.81091	723.86975	709.34814	-546.21082	1384.81897	1116.02917	-580.87561	1199.79858	1224.35059	-561.20313	1084.27515	1249.60022	-492.72089	990.87573	1263.85693	-374.12686	910.67853	1214.84766	-412.13269	880.98938	1261.88306	-339.06979	840.70367	1252.83777	-442.84625	943.6748	883.57727	-482.77252	936.93854	1097.29785	-606.66034	965.11298	884.78247	-626.97162	958.63287	1050.11963	-429.87723	642.20953	806.53986	-374.85452	491.03064	837.62299	-364.47156	232.80444	844.53906	-346.77505	62.37182	889.37799	-386.54608	48.99239	934.97546	-203.16425	41.25165	897.22485	-571.35065	599.36884	1156.38647	-577.55341	471.21484	1150.15234	-784.15454	315.2438	1120.64063	-931.09106	214.5327	1061.98962	-951.88751	234.84723	1008.00952	-921.08881	55.58548	1081.79651	-553.9516	1675.80981	943.98175	NaN	NaN	NaN	NaN	NaN	NaN	NaN	NaN	NaN	NaN	NaN	NaN
